<mxfile host="65bd71144e">
    <diagram id="KeleEig6ndivwDnmTOK7" name="Page-1">
        <mxGraphModel dx="1228" dy="690" grid="1" gridSize="10" guides="1" tooltips="1" connect="1" arrows="1" fold="1" page="1" pageScale="1" pageWidth="850" pageHeight="1100" math="0" shadow="0">
            <root>
                <mxCell id="0"/>
                <mxCell id="1" parent="0"/>
                <mxCell id="2" value="&lt;blockquote style=&quot;margin: 0 0 0 40px; border: none; padding: 0px;&quot;&gt;&lt;div style=&quot;font-size: 25px;&quot;&gt;&lt;br&gt;&lt;/div&gt;&lt;/blockquote&gt;" style="rounded=0;whiteSpace=wrap;html=1;align=left;fillColor=#7907DE;strokeColor=#FFFFFF;labelBackgroundColor=none;verticalAlign=middle;gradientColor=#F0F0F0;gradientDirection=south;glass=0;shadow=0;" parent="1" vertex="1">
                    <mxGeometry x="40" y="120" width="280" height="120" as="geometry"/>
                </mxCell>
                <mxCell id="3" value="" style="rounded=0;whiteSpace=wrap;html=1;fontSize=25;fillColor=#2C2C33;dashed=1;strokeColor=#3399FF;glass=1;" parent="1" vertex="1">
                    <mxGeometry x="40" y="250" width="280" height="590" as="geometry"/>
                </mxCell>
                <mxCell id="4" value="v 2022.12.8" style="text;strokeColor=none;fillColor=none;html=1;fontSize=24;fontStyle=1;verticalAlign=middle;align=center;dashed=1;labelBackgroundColor=none;rotation=-90;fontColor=#64C2BC;" parent="1" vertex="1">
                    <mxGeometry x="10" y="530" width="100" height="40" as="geometry"/>
                </mxCell>
                <mxCell id="8" value="" style="rounded=0;whiteSpace=wrap;html=1;fontSize=25;fillColor=#2C2C33;dashed=1;strokeColor=#3399FF;glass=1;shadow=0;" parent="1" vertex="1">
                    <mxGeometry x="330" y="250" width="280" height="590" as="geometry"/>
                </mxCell>
                <mxCell id="13" value="" style="shape=flexArrow;endArrow=classic;html=1;fontSize=16;fontColor=#F0F0F0;entryX=0;entryY=0.5;entryDx=0;entryDy=0;labelBackgroundColor=#000000;fillColor=#1DA2DF;strokeColor=none;" parent="1" edge="1">
                    <mxGeometry width="50" height="50" relative="1" as="geometry">
                        <mxPoint x="180" y="799" as="sourcePoint"/>
                        <mxPoint x="440" y="799" as="targetPoint"/>
                    </mxGeometry>
                </mxCell>
                <mxCell id="5" value="&lt;p style=&quot;line-height: 100%;&quot;&gt;&lt;br&gt;&lt;/p&gt;" style="rhombus;whiteSpace=wrap;html=1;labelBackgroundColor=none;strokeColor=default;fontSize=25;fillColor=#014FEF;strokeWidth=2;" parent="1" vertex="1">
                    <mxGeometry x="150" y="769" width="60" height="60" as="geometry"/>
                </mxCell>
                <mxCell id="15" value="" style="shape=flexArrow;endArrow=classic;html=1;labelBackgroundColor=#000000;fontSize=16;fontColor=#64C2BC;fillColor=#1DA2DF;strokeColor=none;entryX=0.5;entryY=0;entryDx=0;entryDy=0;" parent="1" target="5" edge="1">
                    <mxGeometry width="50" height="50" relative="1" as="geometry">
                        <mxPoint x="180" y="719" as="sourcePoint"/>
                        <mxPoint x="180.66" y="768" as="targetPoint"/>
                    </mxGeometry>
                </mxCell>
                <mxCell id="19" value="&lt;font style=&quot;font-size: 12px;&quot;&gt;Web Api&lt;/font&gt;" style="rounded=0;whiteSpace=wrap;html=1;labelBackgroundColor=none;fontSize=16;strokeColor=#990202;fillColor=#FCFBFA;strokeWidth=2;fontColor=#030303;" parent="1" vertex="1">
                    <mxGeometry x="92.5" y="336" width="175" height="60" as="geometry"/>
                </mxCell>
                <mxCell id="20" value="&lt;font style=&quot;font-size: 12px;&quot;&gt;WPF Client&lt;/font&gt;" style="rounded=0;whiteSpace=wrap;html=1;labelBackgroundColor=none;fontSize=16;strokeColor=#990202;fillColor=#FCFBFA;strokeWidth=2;fontColor=#030303;" parent="1" vertex="1">
                    <mxGeometry x="92.5" y="272" width="175" height="60" as="geometry"/>
                </mxCell>
                <mxCell id="26" value="" style="shape=flexArrow;endArrow=classic;html=1;fontSize=16;fontColor=#F0F0F0;labelBackgroundColor=#000000;fillColor=#1DA2DF;strokeColor=none;startArrow=none;" parent="1" edge="1">
                    <mxGeometry width="50" height="50" relative="1" as="geometry">
                        <mxPoint x="30" y="799" as="sourcePoint"/>
                        <mxPoint x="150" y="799" as="targetPoint"/>
                    </mxGeometry>
                </mxCell>
                <mxCell id="25" value="&lt;p style=&quot;line-height: 100%;&quot;&gt;&lt;br&gt;&lt;/p&gt;" style="rhombus;whiteSpace=wrap;html=1;labelBackgroundColor=none;strokeColor=default;fontSize=25;fillColor=#014FEF;strokeWidth=2;" parent="1" vertex="1">
                    <mxGeometry x="10" y="769" width="60" height="60" as="geometry"/>
                </mxCell>
                <mxCell id="28" value="" style="shape=flexArrow;endArrow=classic;html=1;labelBackgroundColor=#000000;fontSize=16;fontColor=#64C2BC;fillColor=#1DA2DF;strokeColor=none;entryX=0.5;entryY=0;entryDx=0;entryDy=0;" parent="1" edge="1">
                    <mxGeometry width="50" height="50" relative="1" as="geometry">
                        <mxPoint x="470" y="719" as="sourcePoint"/>
                        <mxPoint x="470" y="769" as="targetPoint"/>
                    </mxGeometry>
                </mxCell>
                <mxCell id="34" value="&lt;font color=&quot;#000000&quot;&gt;Pen &amp;amp; Paper&lt;br&gt;Update Timeline&lt;/font&gt;" style="text;strokeColor=none;fillColor=none;html=1;fontSize=24;fontStyle=1;verticalAlign=middle;align=left;rounded=0;shadow=0;glass=0;labelBackgroundColor=none;sketch=0;fontColor=#64C2BC;" parent="1" vertex="1">
                    <mxGeometry x="60" y="160" width="100" height="40" as="geometry"/>
                </mxCell>
                <mxCell id="35" value="&lt;font style=&quot;font-size: 12px;&quot;&gt;Feature&lt;/font&gt;" style="rounded=0;whiteSpace=wrap;html=1;labelBackgroundColor=none;fontSize=16;strokeColor=#009999;strokeWidth=2;" parent="1" vertex="1">
                    <mxGeometry x="240" y="40" width="175" height="60" as="geometry"/>
                </mxCell>
                <mxCell id="36" value="&lt;font style=&quot;font-size: 12px;&quot;&gt;Project&lt;/font&gt;" style="rounded=0;whiteSpace=wrap;html=1;labelBackgroundColor=none;fontSize=16;strokeColor=#990202;fillColor=#FCFBFA;strokeWidth=2;fontColor=#030303;" parent="1" vertex="1">
                    <mxGeometry x="40" y="40" width="175" height="60" as="geometry"/>
                </mxCell>
                <mxCell id="37" value="Bugfix" style="rounded=0;whiteSpace=wrap;html=1;labelBackgroundColor=none;fontSize=12;strokeColor=#FF8000;strokeWidth=2;" parent="1" vertex="1">
                    <mxGeometry x="440" y="40" width="175" height="60" as="geometry"/>
                </mxCell>
                <mxCell id="38" value="&lt;font style=&quot;font-size: 12px;&quot;&gt;Register and Login&lt;/font&gt;" style="rounded=0;whiteSpace=wrap;html=1;labelBackgroundColor=none;fontSize=16;strokeColor=#009999;strokeWidth=2;" parent="1" vertex="1">
                    <mxGeometry x="92.5" y="400" width="175" height="60" as="geometry"/>
                </mxCell>
                <mxCell id="39" value="&lt;font style=&quot;font-size: 12px;&quot;&gt;Campaign Creation&lt;/font&gt;" style="rounded=0;whiteSpace=wrap;html=1;labelBackgroundColor=none;fontSize=16;strokeColor=#009999;strokeWidth=2;" parent="1" vertex="1">
                    <mxGeometry x="92.5" y="464" width="175" height="60" as="geometry"/>
                </mxCell>
                <mxCell id="40" value="&lt;font style=&quot;font-size: 12px;&quot;&gt;Campaigns Overview&lt;/font&gt;" style="rounded=0;whiteSpace=wrap;html=1;labelBackgroundColor=none;fontSize=16;strokeColor=#009999;strokeWidth=2;" parent="1" vertex="1">
                    <mxGeometry x="92.5" y="528" width="175" height="60" as="geometry"/>
                </mxCell>
                <mxCell id="136" style="edgeStyle=orthogonalEdgeStyle;html=1;exitX=1;exitY=0.5;exitDx=0;exitDy=0;entryX=0;entryY=0.5;entryDx=0;entryDy=0;strokeColor=#940BB8;strokeWidth=3;fontSize=12;endArrow=block;endFill=1;" edge="1" parent="1" source="41" target="50">
                    <mxGeometry relative="1" as="geometry"/>
                </mxCell>
                <mxCell id="41" value="&lt;font style=&quot;font-size: 12px;&quot;&gt;Map Creation&lt;/font&gt;" style="rounded=0;whiteSpace=wrap;html=1;labelBackgroundColor=none;fontSize=16;strokeColor=#009999;strokeWidth=2;" parent="1" vertex="1">
                    <mxGeometry x="92.5" y="592" width="175" height="60" as="geometry"/>
                </mxCell>
                <mxCell id="42" value="&lt;font style=&quot;font-size: 12px;&quot;&gt;Gamemaster View&lt;/font&gt;" style="rounded=0;whiteSpace=wrap;html=1;labelBackgroundColor=none;fontSize=16;strokeColor=#009999;strokeWidth=2;" parent="1" vertex="1">
                    <mxGeometry x="92.5" y="656" width="175" height="60" as="geometry"/>
                </mxCell>
                <mxCell id="47" value="&lt;font style=&quot;font-size: 12px;&quot;&gt;Dice Roller&lt;/font&gt;" style="rounded=0;whiteSpace=wrap;html=1;labelBackgroundColor=none;fontSize=16;strokeColor=#009999;strokeWidth=2;" parent="1" vertex="1">
                    <mxGeometry x="382.5" y="400" width="175" height="60" as="geometry"/>
                </mxCell>
                <mxCell id="48" value="&lt;font style=&quot;font-size: 12px;&quot;&gt;Script Markdown Renderer&lt;/font&gt;" style="rounded=0;whiteSpace=wrap;html=1;labelBackgroundColor=none;fontSize=16;strokeColor=#009999;strokeWidth=2;" parent="1" vertex="1">
                    <mxGeometry x="382.5" y="464" width="175" height="60" as="geometry"/>
                </mxCell>
                <mxCell id="49" value="&lt;font style=&quot;font-size: 12px;&quot;&gt;Maps Overview&lt;/font&gt;" style="rounded=0;whiteSpace=wrap;html=1;labelBackgroundColor=none;fontSize=16;strokeColor=#009999;strokeWidth=2;" parent="1" vertex="1">
                    <mxGeometry x="382.5" y="528" width="175" height="60" as="geometry"/>
                </mxCell>
                <mxCell id="50" value="&lt;font style=&quot;font-size: 12px;&quot;&gt;Map&lt;/font&gt;" style="rounded=0;whiteSpace=wrap;html=1;labelBackgroundColor=none;fontSize=16;strokeColor=#009999;strokeWidth=2;" parent="1" vertex="1">
                    <mxGeometry x="382.5" y="592" width="175" height="60" as="geometry"/>
                </mxCell>
                <mxCell id="51" value="&lt;span style=&quot;font-size: 12px;&quot;&gt;Audio Player&lt;/span&gt;" style="rounded=0;whiteSpace=wrap;html=1;labelBackgroundColor=none;fontSize=16;strokeColor=#009999;strokeWidth=2;" parent="1" vertex="1">
                    <mxGeometry x="382.5" y="656" width="175" height="60" as="geometry"/>
                </mxCell>
                <mxCell id="52" value="v 2023.1.29" style="text;strokeColor=none;fillColor=none;html=1;fontSize=24;fontStyle=1;verticalAlign=middle;align=center;dashed=1;labelBackgroundColor=none;rotation=-90;fontColor=#64C2BC;" parent="1" vertex="1">
                    <mxGeometry x="300" y="530" width="100" height="40" as="geometry"/>
                </mxCell>
                <mxCell id="53" value="" style="sketch=0;html=1;aspect=fixed;strokeColor=none;shadow=0;align=center;verticalAlign=top;fillColor=#fff;shape=mxgraph.gcp2.play_start;strokeWidth=2;fontSize=12;fontColor=#030303;" parent="1" vertex="1">
                    <mxGeometry x="25" y="784" width="30" height="30" as="geometry"/>
                </mxCell>
                <mxCell id="54" value="" style="rhombus;whiteSpace=wrap;html=1;strokeColor=default;strokeWidth=2;fillColor=#F0F0F0;" parent="1" vertex="1">
                    <mxGeometry x="165" y="784" width="30" height="30" as="geometry"/>
                </mxCell>
                <mxCell id="58" value="" style="rounded=0;whiteSpace=wrap;html=1;fontSize=25;fillColor=#2C2C33;dashed=1;strokeColor=#3399FF;glass=1;shadow=0;" vertex="1" parent="1">
                    <mxGeometry x="620" y="250" width="280" height="590" as="geometry"/>
                </mxCell>
                <mxCell id="59" value="" style="shape=flexArrow;endArrow=classic;html=1;labelBackgroundColor=#000000;fontSize=16;fontColor=#64C2BC;fillColor=#1DA2DF;strokeColor=none;entryX=0.5;entryY=0;entryDx=0;entryDy=0;" edge="1" parent="1">
                    <mxGeometry width="50" height="50" relative="1" as="geometry">
                        <mxPoint x="760" y="719" as="sourcePoint"/>
                        <mxPoint x="760" y="769" as="targetPoint"/>
                    </mxGeometry>
                </mxCell>
                <mxCell id="68" value="" style="shape=flexArrow;endArrow=classic;html=1;fontSize=16;fontColor=#F0F0F0;entryX=0;entryY=0.5;entryDx=0;entryDy=0;labelBackgroundColor=#000000;fillColor=#1DA2DF;strokeColor=none;" edge="1" parent="1">
                    <mxGeometry width="50" height="50" relative="1" as="geometry">
                        <mxPoint x="470" y="798.5" as="sourcePoint"/>
                        <mxPoint x="730" y="798.5" as="targetPoint"/>
                    </mxGeometry>
                </mxCell>
                <mxCell id="65" value="v 0.0.2" style="text;strokeColor=none;fillColor=none;html=1;fontSize=24;fontStyle=1;verticalAlign=middle;align=center;dashed=1;labelBackgroundColor=none;rotation=-90;fontColor=#64C2BC;" vertex="1" parent="1">
                    <mxGeometry x="590" y="530" width="100" height="40" as="geometry"/>
                </mxCell>
                <mxCell id="56" value="&lt;p style=&quot;line-height: 100%;&quot;&gt;&lt;br&gt;&lt;/p&gt;" style="rhombus;whiteSpace=wrap;html=1;labelBackgroundColor=none;strokeColor=default;fontSize=25;fillColor=#014FEF;strokeWidth=2;" parent="1" vertex="1">
                    <mxGeometry x="440" y="769" width="60" height="60" as="geometry"/>
                </mxCell>
                <mxCell id="57" value="" style="rhombus;whiteSpace=wrap;html=1;strokeColor=default;strokeWidth=2;fillColor=#F0F0F0;" parent="1" vertex="1">
                    <mxGeometry x="455" y="784" width="30" height="30" as="geometry"/>
                </mxCell>
                <mxCell id="69" value="" style="rounded=0;whiteSpace=wrap;html=1;fontSize=25;fillColor=#2C2C33;dashed=1;strokeColor=#3399FF;glass=1;shadow=0;" vertex="1" parent="1">
                    <mxGeometry x="910" y="250" width="280" height="590" as="geometry"/>
                </mxCell>
                <mxCell id="70" value="" style="shape=flexArrow;endArrow=classic;html=1;labelBackgroundColor=#000000;fontSize=16;fontColor=#64C2BC;fillColor=#1DA2DF;strokeColor=none;entryX=0.5;entryY=0;entryDx=0;entryDy=0;" edge="1" parent="1">
                    <mxGeometry width="50" height="50" relative="1" as="geometry">
                        <mxPoint x="1050" y="719" as="sourcePoint"/>
                        <mxPoint x="1050" y="769" as="targetPoint"/>
                    </mxGeometry>
                </mxCell>
                <mxCell id="72" value="" style="shape=flexArrow;endArrow=classic;html=1;fontSize=16;fontColor=#F0F0F0;entryX=0;entryY=0.5;entryDx=0;entryDy=0;labelBackgroundColor=#000000;fillColor=#1DA2DF;strokeColor=none;" edge="1" parent="1">
                    <mxGeometry width="50" height="50" relative="1" as="geometry">
                        <mxPoint x="760" y="798.5" as="sourcePoint"/>
                        <mxPoint x="1020" y="798.5" as="targetPoint"/>
                    </mxGeometry>
                </mxCell>
                <mxCell id="73" value="v 0.0.2" style="text;strokeColor=none;fillColor=none;html=1;fontSize=24;fontStyle=1;verticalAlign=middle;align=center;dashed=1;labelBackgroundColor=none;rotation=-90;fontColor=#64C2BC;" vertex="1" parent="1">
                    <mxGeometry x="880" y="530" width="100" height="40" as="geometry"/>
                </mxCell>
                <mxCell id="76" value="" style="rounded=0;whiteSpace=wrap;html=1;fontSize=25;fillColor=#2C2C33;dashed=1;strokeColor=#3399FF;glass=1;shadow=0;" vertex="1" parent="1">
                    <mxGeometry x="1200" y="250" width="280" height="590" as="geometry"/>
                </mxCell>
                <mxCell id="77" value="" style="shape=flexArrow;endArrow=classic;html=1;labelBackgroundColor=#000000;fontSize=16;fontColor=#64C2BC;fillColor=#1DA2DF;strokeColor=none;entryX=0.5;entryY=0;entryDx=0;entryDy=0;" edge="1" parent="1">
                    <mxGeometry width="50" height="50" relative="1" as="geometry">
                        <mxPoint x="1340" y="719" as="sourcePoint"/>
                        <mxPoint x="1340" y="769" as="targetPoint"/>
                    </mxGeometry>
                </mxCell>
                <mxCell id="79" value="" style="shape=flexArrow;endArrow=classic;html=1;fontSize=16;fontColor=#F0F0F0;entryX=0;entryY=0.5;entryDx=0;entryDy=0;labelBackgroundColor=#000000;fillColor=#1DA2DF;strokeColor=none;" edge="1" parent="1">
                    <mxGeometry width="50" height="50" relative="1" as="geometry">
                        <mxPoint x="1050" y="798.5" as="sourcePoint"/>
                        <mxPoint x="1310" y="798.5" as="targetPoint"/>
                    </mxGeometry>
                </mxCell>
                <mxCell id="80" value="v 0.0.2" style="text;strokeColor=none;fillColor=none;html=1;fontSize=24;fontStyle=1;verticalAlign=middle;align=center;dashed=1;labelBackgroundColor=none;rotation=-90;fontColor=#64C2BC;" vertex="1" parent="1">
                    <mxGeometry x="1170" y="530" width="100" height="40" as="geometry"/>
                </mxCell>
                <mxCell id="83" value="" style="rounded=0;whiteSpace=wrap;html=1;fontSize=25;fillColor=#2C2C33;dashed=1;strokeColor=#3399FF;glass=1;shadow=0;" vertex="1" parent="1">
                    <mxGeometry x="1490" y="250" width="280" height="590" as="geometry"/>
                </mxCell>
                <mxCell id="84" value="" style="shape=flexArrow;endArrow=classic;html=1;labelBackgroundColor=#000000;fontSize=16;fontColor=#64C2BC;fillColor=#1DA2DF;strokeColor=none;entryX=0.5;entryY=0;entryDx=0;entryDy=0;" edge="1" parent="1">
                    <mxGeometry width="50" height="50" relative="1" as="geometry">
                        <mxPoint x="1630" y="719" as="sourcePoint"/>
                        <mxPoint x="1630" y="769" as="targetPoint"/>
                    </mxGeometry>
                </mxCell>
                <mxCell id="86" value="" style="shape=flexArrow;endArrow=classic;html=1;fontSize=16;fontColor=#F0F0F0;entryX=0;entryY=0.5;entryDx=0;entryDy=0;labelBackgroundColor=#000000;fillColor=#1DA2DF;strokeColor=none;" edge="1" parent="1">
                    <mxGeometry width="50" height="50" relative="1" as="geometry">
                        <mxPoint x="1340" y="798.5" as="sourcePoint"/>
                        <mxPoint x="1600" y="798.5" as="targetPoint"/>
                    </mxGeometry>
                </mxCell>
                <mxCell id="87" value="v 0.0.2" style="text;strokeColor=none;fillColor=none;html=1;fontSize=24;fontStyle=1;verticalAlign=middle;align=center;dashed=1;labelBackgroundColor=none;rotation=-90;fontColor=#64C2BC;" vertex="1" parent="1">
                    <mxGeometry x="1460" y="530" width="100" height="40" as="geometry"/>
                </mxCell>
                <mxCell id="90" value="" style="rounded=0;whiteSpace=wrap;html=1;fontSize=25;fillColor=#2C2C33;dashed=1;strokeColor=#3399FF;glass=1;shadow=0;" vertex="1" parent="1">
                    <mxGeometry x="1780" y="250" width="280" height="590" as="geometry"/>
                </mxCell>
                <mxCell id="91" value="" style="shape=flexArrow;endArrow=classic;html=1;labelBackgroundColor=#000000;fontSize=16;fontColor=#64C2BC;fillColor=#1DA2DF;strokeColor=none;entryX=0.5;entryY=0;entryDx=0;entryDy=0;" edge="1" parent="1">
                    <mxGeometry width="50" height="50" relative="1" as="geometry">
                        <mxPoint x="1920" y="719" as="sourcePoint"/>
                        <mxPoint x="1920" y="769" as="targetPoint"/>
                    </mxGeometry>
                </mxCell>
                <mxCell id="93" value="" style="shape=flexArrow;endArrow=classic;html=1;fontSize=16;fontColor=#F0F0F0;entryX=0;entryY=0.5;entryDx=0;entryDy=0;labelBackgroundColor=#000000;fillColor=#1DA2DF;strokeColor=none;" edge="1" parent="1">
                    <mxGeometry width="50" height="50" relative="1" as="geometry">
                        <mxPoint x="1630" y="798.5" as="sourcePoint"/>
                        <mxPoint x="1890" y="798.5" as="targetPoint"/>
                    </mxGeometry>
                </mxCell>
                <mxCell id="94" value="v 0.0.2" style="text;strokeColor=none;fillColor=none;html=1;fontSize=24;fontStyle=1;verticalAlign=middle;align=center;dashed=1;labelBackgroundColor=none;rotation=-90;fontColor=#64C2BC;" vertex="1" parent="1">
                    <mxGeometry x="1750" y="530" width="100" height="40" as="geometry"/>
                </mxCell>
                <mxCell id="97" value="" style="rounded=0;whiteSpace=wrap;html=1;fontSize=25;fillColor=#2C2C33;dashed=1;strokeColor=#3399FF;glass=1;shadow=0;" vertex="1" parent="1">
                    <mxGeometry x="2070" y="250" width="280" height="590" as="geometry"/>
                </mxCell>
                <mxCell id="98" value="" style="shape=flexArrow;endArrow=classic;html=1;labelBackgroundColor=#000000;fontSize=16;fontColor=#64C2BC;fillColor=#1DA2DF;strokeColor=none;entryX=0.5;entryY=0;entryDx=0;entryDy=0;" edge="1" parent="1">
                    <mxGeometry width="50" height="50" relative="1" as="geometry">
                        <mxPoint x="2210" y="719" as="sourcePoint"/>
                        <mxPoint x="2210" y="769" as="targetPoint"/>
                    </mxGeometry>
                </mxCell>
                <mxCell id="100" value="" style="shape=flexArrow;endArrow=classic;html=1;fontSize=16;fontColor=#F0F0F0;entryX=0;entryY=0.5;entryDx=0;entryDy=0;labelBackgroundColor=#000000;fillColor=#1DA2DF;strokeColor=none;" edge="1" parent="1">
                    <mxGeometry width="50" height="50" relative="1" as="geometry">
                        <mxPoint x="1920" y="798.5" as="sourcePoint"/>
                        <mxPoint x="2180" y="798.5" as="targetPoint"/>
                    </mxGeometry>
                </mxCell>
                <mxCell id="101" value="v 0.0.2" style="text;strokeColor=none;fillColor=none;html=1;fontSize=24;fontStyle=1;verticalAlign=middle;align=center;dashed=1;labelBackgroundColor=none;rotation=-90;fontColor=#64C2BC;" vertex="1" parent="1">
                    <mxGeometry x="2040" y="530" width="100" height="40" as="geometry"/>
                </mxCell>
                <mxCell id="104" value="" style="rounded=0;whiteSpace=wrap;html=1;fontSize=25;fillColor=#2C2C33;dashed=1;strokeColor=#3399FF;glass=1;shadow=0;" vertex="1" parent="1">
                    <mxGeometry x="2360" y="250" width="280" height="590" as="geometry"/>
                </mxCell>
                <mxCell id="105" value="" style="shape=flexArrow;endArrow=classic;html=1;labelBackgroundColor=#000000;fontSize=16;fontColor=#64C2BC;fillColor=#1DA2DF;strokeColor=none;entryX=0.5;entryY=0;entryDx=0;entryDy=0;" edge="1" parent="1">
                    <mxGeometry width="50" height="50" relative="1" as="geometry">
                        <mxPoint x="2500" y="719" as="sourcePoint"/>
                        <mxPoint x="2500" y="769" as="targetPoint"/>
                    </mxGeometry>
                </mxCell>
                <mxCell id="107" value="" style="shape=flexArrow;endArrow=classic;html=1;fontSize=16;fontColor=#F0F0F0;entryX=0;entryY=0.5;entryDx=0;entryDy=0;labelBackgroundColor=#000000;fillColor=#1DA2DF;strokeColor=none;" edge="1" parent="1">
                    <mxGeometry width="50" height="50" relative="1" as="geometry">
                        <mxPoint x="2210" y="798.5" as="sourcePoint"/>
                        <mxPoint x="2470" y="798.5" as="targetPoint"/>
                    </mxGeometry>
                </mxCell>
                <mxCell id="108" value="v 0.0.2" style="text;strokeColor=none;fillColor=none;html=1;fontSize=24;fontStyle=1;verticalAlign=middle;align=center;dashed=1;labelBackgroundColor=none;rotation=-90;fontColor=#64C2BC;" vertex="1" parent="1">
                    <mxGeometry x="2330" y="530" width="100" height="40" as="geometry"/>
                </mxCell>
                <mxCell id="111" value="" style="rounded=0;whiteSpace=wrap;html=1;fontSize=25;fillColor=#2C2C33;dashed=1;strokeColor=#3399FF;glass=1;shadow=0;" vertex="1" parent="1">
                    <mxGeometry x="2650" y="250" width="280" height="590" as="geometry"/>
                </mxCell>
                <mxCell id="112" value="" style="shape=flexArrow;endArrow=classic;html=1;labelBackgroundColor=#000000;fontSize=16;fontColor=#64C2BC;fillColor=#1DA2DF;strokeColor=none;entryX=0.5;entryY=0;entryDx=0;entryDy=0;" edge="1" parent="1">
                    <mxGeometry width="50" height="50" relative="1" as="geometry">
                        <mxPoint x="2790" y="719" as="sourcePoint"/>
                        <mxPoint x="2790" y="769" as="targetPoint"/>
                    </mxGeometry>
                </mxCell>
                <mxCell id="113" value="" style="rounded=0;whiteSpace=wrap;html=1;labelBackgroundColor=none;fontSize=16;strokeColor=#009999;strokeWidth=2;" vertex="1" parent="1">
                    <mxGeometry x="2702.5" y="656" width="175" height="60" as="geometry"/>
                </mxCell>
                <mxCell id="114" value="" style="shape=flexArrow;endArrow=classic;html=1;fontSize=16;fontColor=#F0F0F0;entryX=0;entryY=0.5;entryDx=0;entryDy=0;labelBackgroundColor=#000000;fillColor=#1DA2DF;strokeColor=none;" edge="1" parent="1">
                    <mxGeometry width="50" height="50" relative="1" as="geometry">
                        <mxPoint x="2500" y="798.5" as="sourcePoint"/>
                        <mxPoint x="2760" y="798.5" as="targetPoint"/>
                    </mxGeometry>
                </mxCell>
                <mxCell id="115" value="v 0.0.2" style="text;strokeColor=none;fillColor=none;html=1;fontSize=24;fontStyle=1;verticalAlign=middle;align=center;dashed=1;labelBackgroundColor=none;rotation=-90;fontColor=#64C2BC;" vertex="1" parent="1">
                    <mxGeometry x="2620" y="530" width="100" height="40" as="geometry"/>
                </mxCell>
                <mxCell id="116" value="&lt;p style=&quot;line-height: 100%;&quot;&gt;&lt;br&gt;&lt;/p&gt;" style="rhombus;whiteSpace=wrap;html=1;labelBackgroundColor=none;strokeColor=default;fontSize=25;fillColor=#014FEF;strokeWidth=2;" vertex="1" parent="1">
                    <mxGeometry x="2760" y="769" width="60" height="60" as="geometry"/>
                </mxCell>
                <mxCell id="117" value="" style="rhombus;whiteSpace=wrap;html=1;strokeColor=default;strokeWidth=2;fillColor=#F0F0F0;" vertex="1" parent="1">
                    <mxGeometry x="2775" y="784" width="30" height="30" as="geometry"/>
                </mxCell>
                <mxCell id="66" value="&lt;p style=&quot;line-height: 100%;&quot;&gt;&lt;br&gt;&lt;/p&gt;" style="rhombus;whiteSpace=wrap;html=1;labelBackgroundColor=none;strokeColor=default;fontSize=25;fillColor=#014FEF;strokeWidth=2;" vertex="1" parent="1">
                    <mxGeometry x="730" y="769" width="60" height="60" as="geometry"/>
                </mxCell>
                <mxCell id="67" value="" style="rhombus;whiteSpace=wrap;html=1;strokeColor=default;strokeWidth=2;fillColor=#F0F0F0;" vertex="1" parent="1">
                    <mxGeometry x="745" y="784" width="30" height="30" as="geometry"/>
                </mxCell>
                <mxCell id="74" value="&lt;p style=&quot;line-height: 100%;&quot;&gt;&lt;br&gt;&lt;/p&gt;" style="rhombus;whiteSpace=wrap;html=1;labelBackgroundColor=none;strokeColor=default;fontSize=25;fillColor=#014FEF;strokeWidth=2;" vertex="1" parent="1">
                    <mxGeometry x="1020" y="769" width="60" height="60" as="geometry"/>
                </mxCell>
                <mxCell id="75" value="" style="rhombus;whiteSpace=wrap;html=1;strokeColor=default;strokeWidth=2;fillColor=#F0F0F0;" vertex="1" parent="1">
                    <mxGeometry x="1035" y="784" width="30" height="30" as="geometry"/>
                </mxCell>
                <mxCell id="81" value="&lt;p style=&quot;line-height: 100%;&quot;&gt;&lt;br&gt;&lt;/p&gt;" style="rhombus;whiteSpace=wrap;html=1;labelBackgroundColor=none;strokeColor=default;fontSize=25;fillColor=#014FEF;strokeWidth=2;" vertex="1" parent="1">
                    <mxGeometry x="1310" y="769" width="60" height="60" as="geometry"/>
                </mxCell>
                <mxCell id="82" value="" style="rhombus;whiteSpace=wrap;html=1;strokeColor=default;strokeWidth=2;fillColor=#F0F0F0;" vertex="1" parent="1">
                    <mxGeometry x="1325" y="784" width="30" height="30" as="geometry"/>
                </mxCell>
                <mxCell id="88" value="&lt;p style=&quot;line-height: 100%;&quot;&gt;&lt;br&gt;&lt;/p&gt;" style="rhombus;whiteSpace=wrap;html=1;labelBackgroundColor=none;strokeColor=default;fontSize=25;fillColor=#014FEF;strokeWidth=2;" vertex="1" parent="1">
                    <mxGeometry x="1600" y="769" width="60" height="60" as="geometry"/>
                </mxCell>
                <mxCell id="89" value="" style="rhombus;whiteSpace=wrap;html=1;strokeColor=default;strokeWidth=2;fillColor=#F0F0F0;" vertex="1" parent="1">
                    <mxGeometry x="1615" y="784" width="30" height="30" as="geometry"/>
                </mxCell>
                <mxCell id="95" value="&lt;p style=&quot;line-height: 100%;&quot;&gt;&lt;br&gt;&lt;/p&gt;" style="rhombus;whiteSpace=wrap;html=1;labelBackgroundColor=none;strokeColor=default;fontSize=25;fillColor=#014FEF;strokeWidth=2;" vertex="1" parent="1">
                    <mxGeometry x="1890" y="769" width="60" height="60" as="geometry"/>
                </mxCell>
                <mxCell id="96" value="" style="rhombus;whiteSpace=wrap;html=1;strokeColor=default;strokeWidth=2;fillColor=#F0F0F0;" vertex="1" parent="1">
                    <mxGeometry x="1905" y="784" width="30" height="30" as="geometry"/>
                </mxCell>
                <mxCell id="102" value="&lt;p style=&quot;line-height: 100%;&quot;&gt;&lt;br&gt;&lt;/p&gt;" style="rhombus;whiteSpace=wrap;html=1;labelBackgroundColor=none;strokeColor=default;fontSize=25;fillColor=#014FEF;strokeWidth=2;" vertex="1" parent="1">
                    <mxGeometry x="2180" y="769" width="60" height="60" as="geometry"/>
                </mxCell>
                <mxCell id="103" value="" style="rhombus;whiteSpace=wrap;html=1;strokeColor=default;strokeWidth=2;fillColor=#F0F0F0;" vertex="1" parent="1">
                    <mxGeometry x="2195" y="784" width="30" height="30" as="geometry"/>
                </mxCell>
                <mxCell id="109" value="&lt;p style=&quot;line-height: 100%;&quot;&gt;&lt;br&gt;&lt;/p&gt;" style="rhombus;whiteSpace=wrap;html=1;labelBackgroundColor=none;strokeColor=default;fontSize=25;fillColor=#014FEF;strokeWidth=2;" vertex="1" parent="1">
                    <mxGeometry x="2470" y="769" width="60" height="60" as="geometry"/>
                </mxCell>
                <mxCell id="110" value="" style="rhombus;whiteSpace=wrap;html=1;strokeColor=default;strokeWidth=2;fillColor=#F0F0F0;" vertex="1" parent="1">
                    <mxGeometry x="2485" y="784" width="30" height="30" as="geometry"/>
                </mxCell>
                <mxCell id="132" style="edgeStyle=orthogonalEdgeStyle;html=1;exitX=1;exitY=0.5;exitDx=0;exitDy=0;entryX=0;entryY=0.5;entryDx=0;entryDy=0;fontSize=12;strokeWidth=3;strokeColor=#940BB8;endArrow=block;endFill=1;" edge="1" parent="1" source="119" target="130">
                    <mxGeometry relative="1" as="geometry">
                        <Array as="points">
                            <mxPoint x="880" y="558"/>
                            <mxPoint x="880" y="310"/>
                            <mxPoint x="1180" y="310"/>
                            <mxPoint x="1180" y="558"/>
                        </Array>
                    </mxGeometry>
                </mxCell>
                <mxCell id="119" value="&lt;font style=&quot;font-size: 12px;&quot;&gt;Character List&lt;/font&gt;" style="rounded=0;whiteSpace=wrap;html=1;labelBackgroundColor=none;fontSize=16;strokeColor=#009999;strokeWidth=2;" vertex="1" parent="1">
                    <mxGeometry x="672.5" y="528" width="175" height="60" as="geometry"/>
                </mxCell>
                <mxCell id="120" value="&lt;font style=&quot;font-size: 12px;&quot;&gt;Frameless WPF Window&lt;/font&gt;" style="rounded=0;whiteSpace=wrap;html=1;labelBackgroundColor=none;fontSize=16;strokeColor=#009999;strokeWidth=2;" vertex="1" parent="1">
                    <mxGeometry x="672.5" y="464" width="175" height="60" as="geometry"/>
                </mxCell>
                <mxCell id="121" value="&lt;font style=&quot;font-size: 12px;&quot;&gt;Map Tokens&lt;/font&gt;" style="rounded=0;whiteSpace=wrap;html=1;labelBackgroundColor=none;fontSize=16;strokeColor=#009999;strokeWidth=2;" vertex="1" parent="1">
                    <mxGeometry x="672.5" y="400" width="175" height="60" as="geometry"/>
                </mxCell>
                <mxCell id="122" value="&lt;font style=&quot;font-size: 12px;&quot;&gt;Zooming Map&lt;/font&gt;" style="rounded=0;whiteSpace=wrap;html=1;labelBackgroundColor=none;fontSize=16;strokeColor=#009999;strokeWidth=2;" vertex="1" parent="1">
                    <mxGeometry x="672.5" y="336" width="175" height="60" as="geometry"/>
                </mxCell>
                <mxCell id="123" value="&lt;font style=&quot;font-size: 12px;&quot;&gt;Update from .Net7 to .Net8&lt;/font&gt;" style="rounded=0;whiteSpace=wrap;html=1;labelBackgroundColor=none;fontSize=16;strokeColor=#CEFF08;strokeWidth=2;" vertex="1" parent="1">
                    <mxGeometry x="962.5" y="656" width="175" height="60" as="geometry"/>
                </mxCell>
                <mxCell id="124" value="&lt;font style=&quot;font-size: 12px;&quot;&gt;Client Settings&lt;/font&gt;" style="rounded=0;whiteSpace=wrap;html=1;labelBackgroundColor=none;fontSize=16;strokeColor=#009999;strokeWidth=2;" vertex="1" parent="1">
                    <mxGeometry x="962.5" y="592" width="175" height="60" as="geometry"/>
                </mxCell>
                <mxCell id="125" value="&lt;font style=&quot;font-size: 12px;&quot;&gt;Debugging Window&lt;/font&gt;" style="rounded=0;whiteSpace=wrap;html=1;labelBackgroundColor=none;fontSize=16;strokeColor=#009999;strokeWidth=2;" vertex="1" parent="1">
                    <mxGeometry x="962.5" y="528" width="175" height="60" as="geometry"/>
                </mxCell>
                <mxCell id="165" style="edgeStyle=orthogonalEdgeStyle;html=1;exitX=1;exitY=0.5;exitDx=0;exitDy=0;entryX=0;entryY=0.5;entryDx=0;entryDy=0;strokeColor=#940BB8;strokeWidth=3;fontSize=12;fontColor=#F0F0F0;endArrow=block;endFill=1;" edge="1" parent="1" source="126" target="164">
                    <mxGeometry relative="1" as="geometry">
                        <Array as="points">
                            <mxPoint x="1160" y="494"/>
                            <mxPoint x="1160" y="686"/>
                        </Array>
                    </mxGeometry>
                </mxCell>
                <mxCell id="126" value="&lt;font style=&quot;font-size: 12px;&quot;&gt;Monsters&lt;/font&gt;" style="rounded=0;whiteSpace=wrap;html=1;labelBackgroundColor=none;fontSize=16;strokeColor=#009999;strokeWidth=2;" vertex="1" parent="1">
                    <mxGeometry x="962.5" y="464" width="175" height="60" as="geometry"/>
                </mxCell>
                <mxCell id="166" style="edgeStyle=orthogonalEdgeStyle;html=1;exitX=1;exitY=0.5;exitDx=0;exitDy=0;entryX=0;entryY=0.5;entryDx=0;entryDy=0;strokeColor=#940BB8;strokeWidth=3;fontSize=12;fontColor=#F0F0F0;endArrow=block;endFill=1;" edge="1" parent="1" source="127" target="131">
                    <mxGeometry relative="1" as="geometry">
                        <Array as="points">
                            <mxPoint x="1170" y="430"/>
                            <mxPoint x="1170" y="622"/>
                        </Array>
                    </mxGeometry>
                </mxCell>
                <mxCell id="127" value="&lt;font style=&quot;font-size: 12px;&quot;&gt;Character Creation&lt;/font&gt;" style="rounded=0;whiteSpace=wrap;html=1;labelBackgroundColor=none;fontSize=16;strokeColor=#009999;strokeWidth=2;" vertex="1" parent="1">
                    <mxGeometry x="962.5" y="400" width="175" height="60" as="geometry"/>
                </mxCell>
                <mxCell id="128" value="&lt;font style=&quot;font-size: 12px;&quot;&gt;Replace Polling with&lt;br&gt;Event-System based on&lt;br&gt;Websockets&lt;br&gt;&lt;/font&gt;" style="rounded=0;whiteSpace=wrap;html=1;labelBackgroundColor=none;fontSize=16;strokeColor=#009999;strokeWidth=2;" vertex="1" parent="1">
                    <mxGeometry x="962.5" y="336" width="175" height="60" as="geometry"/>
                </mxCell>
                <mxCell id="130" value="&lt;font style=&quot;font-size: 12px;&quot;&gt;Filter for Character List&lt;/font&gt;" style="rounded=0;whiteSpace=wrap;html=1;labelBackgroundColor=none;fontSize=16;strokeColor=#009999;strokeWidth=2;" vertex="1" parent="1">
                    <mxGeometry x="1252.5" y="528" width="175" height="60" as="geometry"/>
                </mxCell>
                <mxCell id="131" value="&lt;span style=&quot;font-size: 12px;&quot;&gt;Campaign Edit&lt;/span&gt;" style="rounded=0;whiteSpace=wrap;html=1;labelBackgroundColor=none;fontSize=16;strokeColor=#009999;strokeWidth=2;" vertex="1" parent="1">
                    <mxGeometry x="1252.5" y="592" width="175" height="60" as="geometry"/>
                </mxCell>
                <mxCell id="135" style="edgeStyle=orthogonalEdgeStyle;html=1;exitX=1;exitY=0.5;exitDx=0;exitDy=0;entryX=0;entryY=0.5;entryDx=0;entryDy=0;strokeColor=#940BB8;strokeWidth=3;fontSize=12;endArrow=block;endFill=1;" edge="1" parent="1" source="50" target="122">
                    <mxGeometry relative="1" as="geometry">
                        <Array as="points">
                            <mxPoint x="590" y="622"/>
                            <mxPoint x="590" y="366"/>
                        </Array>
                    </mxGeometry>
                </mxCell>
                <mxCell id="137" value="&lt;span style=&quot;font-size: 12px;&quot;&gt;&lt;font color=&quot;#f0f0f0&quot;&gt;First deployment of API&lt;/font&gt;&lt;/span&gt;" style="rounded=0;whiteSpace=wrap;html=1;labelBackgroundColor=none;fontSize=16;strokeColor=#0066CC;fillColor=#0B2036;strokeWidth=2;fontColor=#030303;" vertex="1" parent="1">
                    <mxGeometry x="1252.5" y="464" width="175" height="60" as="geometry"/>
                </mxCell>
                <mxCell id="138" value="&lt;span style=&quot;font-size: 12px;&quot;&gt;Change in Dependency&lt;/span&gt;" style="rounded=0;whiteSpace=wrap;html=1;labelBackgroundColor=none;fontSize=16;strokeColor=#CEFF08;strokeWidth=2;" vertex="1" parent="1">
                    <mxGeometry x="640" y="40" width="175" height="60" as="geometry"/>
                </mxCell>
                <mxCell id="139" value="&lt;span style=&quot;font-size: 12px;&quot;&gt;&lt;font color=&quot;#f0f0f0&quot;&gt;Deployment&lt;/font&gt;&lt;/span&gt;" style="rounded=0;whiteSpace=wrap;html=1;labelBackgroundColor=none;fontSize=16;strokeColor=#0066CC;fillColor=#0B2036;strokeWidth=2;fontColor=#030303;" vertex="1" parent="1">
                    <mxGeometry x="842.5" y="40" width="175" height="60" as="geometry"/>
                </mxCell>
                <mxCell id="140" value="&lt;span style=&quot;color: rgb(240, 240, 240); font-size: 12px;&quot;&gt;Dockerize API&lt;/span&gt;" style="rounded=0;whiteSpace=wrap;html=1;labelBackgroundColor=none;fontSize=16;strokeColor=#0066CC;fillColor=#0B2036;strokeWidth=2;fontColor=#030303;" vertex="1" parent="1">
                    <mxGeometry x="672.5" y="656" width="175" height="60" as="geometry"/>
                </mxCell>
                <mxCell id="141" value="&lt;span style=&quot;color: rgb(240, 240, 240); font-size: 12px;&quot;&gt;Publishing Pipeline&lt;/span&gt;" style="rounded=0;whiteSpace=wrap;html=1;labelBackgroundColor=none;fontSize=16;strokeColor=#0066CC;fillColor=#0B2036;strokeWidth=2;fontColor=#030303;" vertex="1" parent="1">
                    <mxGeometry x="672.5" y="592" width="175" height="60" as="geometry"/>
                </mxCell>
                <mxCell id="142" value="&lt;font style=&quot;font-size: 12px;&quot;&gt;Blazor Frontend&lt;/font&gt;" style="rounded=0;whiteSpace=wrap;html=1;labelBackgroundColor=none;fontSize=16;strokeColor=#990202;fillColor=#FCFBFA;strokeWidth=2;fontColor=#030303;" vertex="1" parent="1">
                    <mxGeometry x="1542.5" y="400" width="175" height="60" as="geometry"/>
                </mxCell>
                <mxCell id="143" value="&lt;font style=&quot;font-size: 12px;&quot;&gt;Campaign Creation&lt;/font&gt;" style="rounded=0;whiteSpace=wrap;html=1;labelBackgroundColor=none;fontSize=16;strokeColor=#009999;strokeWidth=2;" vertex="1" parent="1">
                    <mxGeometry x="1542.5" y="464" width="175" height="60" as="geometry"/>
                </mxCell>
                <mxCell id="144" value="&lt;font style=&quot;font-size: 12px;&quot;&gt;Campaign Selection Page&lt;/font&gt;" style="rounded=0;whiteSpace=wrap;html=1;labelBackgroundColor=none;fontSize=16;strokeColor=#009999;strokeWidth=2;" vertex="1" parent="1">
                    <mxGeometry x="1542.5" y="528" width="175" height="60" as="geometry"/>
                </mxCell>
                <mxCell id="153" style="edgeStyle=orthogonalEdgeStyle;html=1;exitX=1;exitY=0.5;exitDx=0;exitDy=0;entryX=0;entryY=0.5;entryDx=0;entryDy=0;strokeColor=#940BB8;strokeWidth=3;fontSize=12;fontColor=#F0F0F0;endArrow=block;endFill=1;" edge="1" parent="1" source="145" target="151">
                    <mxGeometry relative="1" as="geometry">
                        <Array as="points">
                            <mxPoint x="1760" y="622"/>
                            <mxPoint x="1760" y="686"/>
                        </Array>
                    </mxGeometry>
                </mxCell>
                <mxCell id="145" value="&lt;font style=&quot;font-size: 12px;&quot;&gt;WebGL 2&lt;/font&gt;" style="rounded=0;whiteSpace=wrap;html=1;labelBackgroundColor=none;fontSize=16;strokeColor=#009999;strokeWidth=2;" vertex="1" parent="1">
                    <mxGeometry x="1542.5" y="592" width="175" height="60" as="geometry"/>
                </mxCell>
                <mxCell id="146" value="&lt;font style=&quot;font-size: 12px;&quot;&gt;Campaign Page&lt;/font&gt;" style="rounded=0;whiteSpace=wrap;html=1;labelBackgroundColor=none;fontSize=16;strokeColor=#009999;strokeWidth=2;" vertex="1" parent="1">
                    <mxGeometry x="1542.5" y="656" width="175" height="60" as="geometry"/>
                </mxCell>
                <mxCell id="147" value="&lt;font style=&quot;font-size: 12px;&quot;&gt;Dice Roll Visualizer&lt;/font&gt;" style="rounded=0;whiteSpace=wrap;html=1;labelBackgroundColor=none;fontSize=16;strokeColor=#009999;strokeWidth=2;" vertex="1" parent="1">
                    <mxGeometry x="1832.5" y="400" width="175" height="60" as="geometry"/>
                </mxCell>
                <mxCell id="148" value="&lt;font style=&quot;font-size: 12px;&quot;&gt;Map Component&lt;/font&gt;" style="rounded=0;whiteSpace=wrap;html=1;labelBackgroundColor=none;fontSize=16;strokeColor=#009999;strokeWidth=2;" vertex="1" parent="1">
                    <mxGeometry x="1832.5" y="464" width="175" height="60" as="geometry"/>
                </mxCell>
                <mxCell id="149" value="&lt;font style=&quot;font-size: 12px;&quot;&gt;Camera Uniform Buffer&lt;/font&gt;" style="rounded=0;whiteSpace=wrap;html=1;labelBackgroundColor=none;fontSize=16;strokeColor=#009999;strokeWidth=2;" vertex="1" parent="1">
                    <mxGeometry x="1832.5" y="528" width="175" height="60" as="geometry"/>
                </mxCell>
                <mxCell id="150" value="&lt;font style=&quot;font-size: 12px;&quot;&gt;Camera Zoom and Pan&lt;/font&gt;" style="rounded=0;whiteSpace=wrap;html=1;labelBackgroundColor=none;fontSize=16;strokeColor=#009999;strokeWidth=2;" vertex="1" parent="1">
                    <mxGeometry x="1832.5" y="592" width="175" height="60" as="geometry"/>
                </mxCell>
                <mxCell id="151" value="&lt;font style=&quot;font-size: 12px;&quot;&gt;WebGL C# Wrapper&lt;/font&gt;" style="rounded=0;whiteSpace=wrap;html=1;labelBackgroundColor=none;fontSize=16;strokeColor=#009999;strokeWidth=2;" vertex="1" parent="1">
                    <mxGeometry x="1832.5" y="656" width="175" height="60" as="geometry"/>
                </mxCell>
                <mxCell id="152" value="&lt;font style=&quot;font-size: 12px;&quot;&gt;Dice Roller&lt;/font&gt;" style="rounded=0;whiteSpace=wrap;html=1;labelBackgroundColor=none;fontSize=16;strokeColor=#009999;strokeWidth=2;" vertex="1" parent="1">
                    <mxGeometry x="1832.5" y="336" width="175" height="60" as="geometry"/>
                </mxCell>
                <mxCell id="154" value="&lt;font style=&quot;font-size: 12px;&quot;&gt;Grid&lt;/font&gt;" style="rounded=0;whiteSpace=wrap;html=1;labelBackgroundColor=none;fontSize=16;strokeColor=#009999;strokeWidth=2;" vertex="1" parent="1">
                    <mxGeometry x="2122.5" y="336" width="175" height="60" as="geometry"/>
                </mxCell>
                <mxCell id="155" value="&lt;font style=&quot;font-size: 12px;&quot;&gt;Tokens&lt;/font&gt;" style="rounded=0;whiteSpace=wrap;html=1;labelBackgroundColor=none;fontSize=16;strokeColor=#009999;strokeWidth=2;" vertex="1" parent="1">
                    <mxGeometry x="2122.5" y="400" width="175" height="60" as="geometry"/>
                </mxCell>
                <mxCell id="156" value="&lt;font style=&quot;font-size: 12px;&quot;&gt;Mouse indicator&lt;/font&gt;" style="rounded=0;whiteSpace=wrap;html=1;labelBackgroundColor=none;fontSize=16;strokeColor=#009999;strokeWidth=2;" vertex="1" parent="1">
                    <mxGeometry x="2122.5" y="464" width="175" height="60" as="geometry"/>
                </mxCell>
                <mxCell id="157" value="&lt;font style=&quot;font-size: 12px;&quot;&gt;Map Creation and Deletion&lt;/font&gt;" style="rounded=0;whiteSpace=wrap;html=1;labelBackgroundColor=none;fontSize=16;strokeColor=#009999;strokeWidth=2;" vertex="1" parent="1">
                    <mxGeometry x="2122.5" y="528" width="175" height="60" as="geometry"/>
                </mxCell>
                <mxCell id="158" value="&lt;font style=&quot;font-size: 12px;&quot;&gt;Google Authentication&lt;/font&gt;" style="rounded=0;whiteSpace=wrap;html=1;labelBackgroundColor=none;fontSize=16;strokeColor=#009999;strokeWidth=2;" vertex="1" parent="1">
                    <mxGeometry x="2122.5" y="592" width="175" height="60" as="geometry"/>
                </mxCell>
                <mxCell id="159" value="&lt;font style=&quot;font-size: 12px;&quot;&gt;Script Component&lt;/font&gt;" style="rounded=0;whiteSpace=wrap;html=1;labelBackgroundColor=none;fontSize=16;strokeColor=#009999;strokeWidth=2;" vertex="1" parent="1">
                    <mxGeometry x="2122.5" y="272" width="175" height="60" as="geometry"/>
                </mxCell>
                <mxCell id="160" value="&lt;font style=&quot;font-size: 12px;&quot;&gt;Update from .Net7 to .Net8&lt;/font&gt;" style="rounded=0;whiteSpace=wrap;html=1;labelBackgroundColor=none;fontSize=16;strokeColor=#CEFF08;strokeWidth=2;" vertex="1" parent="1">
                    <mxGeometry x="2122.5" y="656" width="175" height="60" as="geometry"/>
                </mxCell>
                <mxCell id="161" value="&lt;span style=&quot;font-size: 12px;&quot;&gt;&lt;font color=&quot;#f0f0f0&quot;&gt;DNS&lt;/font&gt;&lt;/span&gt;" style="rounded=0;whiteSpace=wrap;html=1;labelBackgroundColor=none;fontSize=16;strokeColor=#0066CC;fillColor=#0B2036;strokeWidth=2;fontColor=#030303;" vertex="1" parent="1">
                    <mxGeometry x="2412.5" y="656" width="175" height="60" as="geometry"/>
                </mxCell>
                <mxCell id="162" value="&lt;span style=&quot;font-size: 12px;&quot;&gt;&lt;font color=&quot;#f0f0f0&quot;&gt;Deploy Blazor Frontend&lt;/font&gt;&lt;/span&gt;" style="rounded=0;whiteSpace=wrap;html=1;labelBackgroundColor=none;fontSize=16;strokeColor=#0066CC;fillColor=#0B2036;strokeWidth=2;fontColor=#030303;" vertex="1" parent="1">
                    <mxGeometry x="2412.5" y="592" width="175" height="60" as="geometry"/>
                </mxCell>
                <mxCell id="163" value="&lt;span style=&quot;font-size: 12px;&quot;&gt;&lt;font color=&quot;#f0f0f0&quot;&gt;Dockerize Blazor Frontend&lt;/font&gt;&lt;/span&gt;" style="rounded=0;whiteSpace=wrap;html=1;labelBackgroundColor=none;fontSize=16;strokeColor=#0066CC;fillColor=#0B2036;strokeWidth=2;fontColor=#030303;" vertex="1" parent="1">
                    <mxGeometry x="2412.5" y="528" width="175" height="60" as="geometry"/>
                </mxCell>
                <mxCell id="164" value="&lt;font style=&quot;font-size: 12px;&quot;&gt;Monster Management App&lt;/font&gt;" style="rounded=0;whiteSpace=wrap;html=1;labelBackgroundColor=none;fontSize=16;strokeColor=#990202;fillColor=#FCFBFA;strokeWidth=2;fontColor=#030303;" vertex="1" parent="1">
                    <mxGeometry x="1252.5" y="656" width="175" height="60" as="geometry"/>
                </mxCell>
            </root>
        </mxGraphModel>
    </diagram>
</mxfile>